# xmcd
#
# Track frame offsets:
#	150
#	12625
#	24572
#	36605
#	49005
#	62807
#	76807
#	89295
#	101285
#	113467
#	124740
#	136855
#	150280
#	164450
#	175967
#	188192
#	200335
#	211562
#	223202
#	236710
#	250712
#	263130
#	275322
#	287682
#	299970
#	312225
#	324195
#
# Disc length: 4483 seconds
#
# Revision: 1
# Processed by: cddbd v1.4PL0 Copyright (c) Steve Scherf et al.
# Submitted via: audiograbber 1.80
#
DISCID=8011811b
DTITLE=jimmie davis - you are my sunshine disc 3
DYEAR=1900
DGENRE=
TTITLE0=on the sunny side of the rockies 1941
TTITLE1=the love i have for you 1940
TTITLE2=sweethearts or strangers 1941
TTITLE3=some other man 1941
TTITLE4=i'm sorry now 1941
TTITLE5=the prisoner's song 1941
TTITLE6=my mary 1941
TTITLE7=there's an old fashioned house on a hillside 1941
TTITLE8=too late 1941
TTITLE9=i'm knocking at your door again 1941
TTITLE10=what more can i say 1998
TTITLE11=i told you so 1941
TTITLE12=i hung my head and cried 1941
TTITLE13=i'll be true to the one i love 1941
TTITLE14=just because (of you little girl) 1941
TTITLE15=you're breaking my heart ('cause you don't care) 1942
TTITLE16=i loved you once 1941
TTITLE17=pay me no mind 1941
TTITLE18=won't you forgive me 1941
TTITLE19=i'm thinking tonight of my blue eyes 1942
TTITLE20=you told me a lie 1942
TTITLE21=the end of the world 1942
TTITLE22=you'll be sorry 1942
TTITLE23=sweetheart of the valley 1942
TTITLE24=i'm the one 1942
TTITLE25=tears on my pillow 1942
TTITLE26=i wish i had a sweetheart (like that old sweetheart of mine) 1942 
EXTD=
EXTT0=
EXTT1=
EXTT2=
EXTT3=
EXTT4=
EXTT5=
EXTT6=
EXTT7=
EXTT8=
EXTT9=
EXTT10=
EXTT11=
EXTT12=
EXTT13=
EXTT14=
EXTT15=
EXTT16=
EXTT17=
EXTT18=
EXTT19=
EXTT20=
EXTT21=
EXTT22=
EXTT23=
EXTT24=
EXTT25=
EXTT26=
PLAYORDER=
